<?xml version="1.0" standalone="no"?>
<!DOCTYPE svg PUBLIC "-//W3C//DTD SVG 20010904//EN"
 "http://www.w3.org/TR/2001/REC-SVG-20010904/DTD/svg10.dtd">
<svg version="1.0" xmlns="http://www.w3.org/2000/svg"
 width="260.000000pt" height="260.000000pt" viewBox="0 0 260.000000 260.000000"
 preserveAspectRatio="xMidYMid meet">
<metadata>
Created by potrace 1.11, written by Peter Selinger 2001-2013
</metadata>
<g transform="translate(0.000000,260.000000) scale(0.100000,-0.100000)"
fill="#000000" stroke="none">
<path d="M0 1300 l0 -1300 1300 0 1300 0 0 1300 0 1300 -1300 0 -1300 0 0
-1300z m1357 762 c48 -25 88 -70 117 -132 20 -43 21 -61 21 -366 l0 -320 -30
-59 c-85 -165 -289 -193 -407 -56 -58 68 -61 87 -65 408 -4 245 -2 302 12 355
32 127 132 203 256 194 30 -2 74 -13 96 -24z m-543 -824 c20 -206 217 -378
431 -378 214 0 411 172 431 378 l7 62 74 0 74 0 -7 -57 c-17 -145 -80 -268
-188 -370 -73 -69 -193 -136 -266 -148 l-40 -7 0 -144 0 -144 -85 0 -85 0 0
144 0 144 -40 7 c-73 12 -193 79 -266 148 -108 102 -171 225 -188 370 l-7 57
74 0 74 0 7 -62z"/>
</g>
</svg>
